<svg xmlns="http://www.w3.org/2000/svg" xmlns:xlink="http://www.w3.org/1999/xlink" fill="none" version="1.1" width="24" height="24" viewBox="0 0 24 24"><g><g><g transform="matrix(-1,0,0,-1,39,42)"><g><path d="M27.82286,21.707159C27.767879999999998,21.307804,27.42048,21,27.00012,21C26.54155,21,26.169800000000002,21.366312,26.169800000000002,21.818182L26.169800000000002,36.1999L20.91866,31.0047L20.8257,30.92528C20.50114,30.68696,20.039803,30.712429999999998,19.744412,31.002299999999998C19.4194812,31.321199999999997,19.4183927,31.839199999999998,19.741981,32.1594L26.4008,38.7481C26.43301,38.7812,26.46802,38.8116,26.50545,38.839C26.5116,38.8435,26.51783,38.847899999999996,26.52411,38.8523C26.84851,39.0768,27.299509999999998,39.0458,27.58894,38.759299999999996L34.2581,32.1593L34.338300000000004,32.0674C34.5787,31.7466,34.551,31.292099999999998,34.2555,31.002200000000002C33.9306,30.683419999999998,33.4049,30.68454,33.0813,31.0047L27.83044,36.2012L27.83044,21.818182L27.82286,21.707159Z" fill-rule="evenodd" fill="#130F26" fill-opacity="1"/></g></g></g></g></svg>