<svg xmlns="http://www.w3.org/2000/svg" xmlns:xlink="http://www.w3.org/1999/xlink" fill="none" version="1.1" width="24" height="24" viewBox="0 0 24 24"><defs><clipPath id="master_svg0_0_1333"><rect x="0" y="0" width="24" height="24" rx="0"/></clipPath></defs><g clip-path="url(#master_svg0_0_1333)"><g><path d="M12,21.75C13.24264,21.75,14.25,20.7426,14.25,19.5C14.25,18.2574,13.24264,17.25,12,17.25C10.75736,17.25,9.75,18.2574,9.75,19.5C9.75,20.7426,10.75736,21.75,12,21.75C12,21.75,12,21.75,12,21.75ZM12,6.75C13.24264,6.75,14.25,5.74264,14.25,4.5C14.25,3.2573600000000003,13.24264,2.25,12,2.25C10.75736,2.25,9.75,3.2573600000000003,9.75,4.5C9.75,5.74264,10.75736,6.75,12,6.75C12,6.75,12,6.75,12,6.75ZM12,14.25C13.24264,14.25,14.25,13.2426,14.25,12C14.25,10.75736,13.24264,9.75,12,9.75C10.75736,9.75,9.75,10.75736,9.75,12C9.75,13.2426,10.75736,14.25,12,14.25C12,14.25,12,14.25,12,14.25Z" fill="#373737" fill-opacity="1"/></g></g></svg>