<svg xmlns="http://www.w3.org/2000/svg" xmlns:xlink="http://www.w3.org/1999/xlink" fill="none" version="1.1" width="24" height="24" viewBox="0 0 24 24"><g><g><g><path d="M17.918524133110047,14.320099897384644C17.659524133110047,14.571099897384643,17.540524133110047,14.934099897384643,17.599524133110044,15.290099897384643C17.599524133110044,15.290099897384643,18.488524133110047,20.210099897384644,18.488524133110047,20.210099897384644C18.563524133110047,20.627099897384642,18.387524133110045,21.049099897384643,18.038524133110048,21.290099897384643C17.696524133110046,21.540099897384643,17.241524133110048,21.570099897384644,16.868524133110046,21.370099897384645C16.868524133110046,21.370099897384645,12.439524133110046,19.060099897384642,12.439524133110046,19.060099897384642C12.285524133110046,18.978099897384645,12.114524133110047,18.934099897384645,11.939504133110047,18.929099897384642C11.939504133110047,18.929099897384642,11.668504133110046,18.929099897384642,11.668504133110046,18.929099897384642C11.574504133110047,18.943099897384645,11.482504133110046,18.973099897384643,11.398504133110047,19.019099897384642C11.398504133110047,19.019099897384642,6.968504133110047,21.340099897384643,6.968504133110047,21.340099897384643C6.7495041331100465,21.450099897384643,6.501504133110046,21.489099897384644,6.258504133110047,21.450099897384643C5.666504133110046,21.338099897384645,5.271504133110046,20.774099897384644,5.368504133110046,20.179099897384642C5.368504133110046,20.179099897384642,6.258504133110047,15.259099897384644,6.258504133110047,15.259099897384644C6.317504133110046,14.900099897384644,6.198504133110046,14.535099897384644,5.939504133110047,14.280099897384643C5.939504133110047,14.280099897384643,2.3285001331100466,10.780099897384643,2.3285001331100466,10.780099897384643C2.0264999331100464,10.487099897384644,1.9214999331100464,10.047099897384644,2.0594999331100463,9.650099897384644C2.1935001331100463,9.254099897384643,2.5355001331100464,8.965099897384643,2.9485001331100467,8.900099897384644C2.9485001331100467,8.900099897384644,7.918504133110046,8.179099897384644,7.918504133110046,8.179099897384644C8.296504133110046,8.140099897384644,8.628504133110045,7.910099897384644,8.798504133110047,7.570099897384644C8.798504133110047,7.570099897384644,10.988504133110046,3.0800998973846436,10.988504133110046,3.0800998973846436C11.040504133110046,2.9800998973846435,11.107504133110046,2.8880998973846435,11.188504133110046,2.8100998973846436C11.188504133110046,2.8100998973846436,11.278504133110046,2.7400998973846438,11.278504133110046,2.7400998973846438C11.325504133110046,2.6880998973846437,11.379504133110046,2.6450998973846436,11.439504133110047,2.6100998973846434C11.439504133110047,2.6100998973846434,11.548504133110047,2.5700998973846434,11.548504133110047,2.5700998973846434C11.548504133110047,2.5700998973846434,11.718504133110047,2.5000998973846436,11.718504133110047,2.5000998973846436C11.718504133110047,2.5000998973846436,12.139524133110047,2.5000998973846436,12.139524133110047,2.5000998973846436C12.515524133110047,2.5390998973846437,12.846524133110046,2.764099897384644,13.019524133110046,3.1000998973846436C13.019524133110046,3.1000998973846436,15.238524133110046,7.570099897384644,15.238524133110046,7.570099897384644C15.398524133110046,7.897099897384644,15.709524133110046,8.124099897384642,16.068524133110046,8.179099897384644C16.068524133110046,8.179099897384644,21.038524133110048,8.900099897384644,21.038524133110048,8.900099897384644C21.458524133110046,8.960099897384644,21.809524133110045,9.250099897384644,21.948524133110045,9.650099897384644C22.079524133110045,10.051099897384644,21.966524133110045,10.491099897384643,21.658524133110046,10.780099897384643C21.658524133110046,10.780099897384643,17.918524133110047,14.320099897384644,17.918524133110047,14.320099897384644C17.918524133110047,14.320099897384644,17.918524133110047,14.320099897384644,17.918524133110047,14.320099897384644Z" fill="#130F26" fill-opacity="1"/></g></g></g></svg>