<svg xmlns="http://www.w3.org/2000/svg" xmlns:xlink="http://www.w3.org/1999/xlink" fill="none" version="1.1" width="24" height="24" viewBox="0 0 24 24"><g><g><path d="M11.74992,4.5C11.65892,4.5,11.43492,4.525,11.31592,4.763C11.31592,4.763,9.48992,8.414,9.48992,8.414C9.20092,8.991,8.64392,9.392,7.99992,9.484C7.99992,9.484,3.9119200000000003,10.073,3.9119200000000003,10.073C3.64192,10.112,3.54992,10.312000000000001,3.5219199999999997,10.396C3.4969200000000003,10.477,3.45692,10.683,3.64292,10.861C3.64292,10.861,6.59892,13.701,6.59892,13.701C7.06992,14.154,7.28392,14.807,7.17192,15.446C7.17192,15.446,6.47592,19.456,6.47592,19.456C6.43292,19.707,6.58992,19.853,6.65992,19.903C6.73392,19.959,6.93192,20.07,7.17692,19.942C7.17692,19.942,10.83192,18.047,10.83192,18.047C11.40792,17.75,12.0939,17.75,12.6679,18.047C12.6679,18.047,16.3219,19.941,16.3219,19.941C16.5679,20.068,16.765900000000002,19.957,16.840899999999998,19.903C16.910899999999998,19.853,17.0679,19.707,17.024900000000002,19.456C17.024900000000002,19.456,16.326900000000002,15.446,16.326900000000002,15.446C16.2149,14.807,16.4289,14.154,16.899900000000002,13.701C16.899900000000002,13.701,19.8559,10.861,19.8559,10.861C20.0429,10.683,20.0029,10.475999999999999,19.9769,10.396C19.9499,10.312000000000001,19.8579,10.112,19.5879,10.073C19.5879,10.073,15.4999,9.484,15.4999,9.484C14.8569,9.392,14.2999,8.991,14.0109,8.413C14.0109,8.413,12.1829,4.763,12.1829,4.763C12.0649,4.525,11.84092,4.5,11.74992,4.5ZM6.94692,21.5C6.53392,21.5,6.12392,21.37,5.77292,21.114C5.16692,20.67,4.8699200000000005,19.937,4.99892,19.199C4.99892,19.199,5.69492,15.189,5.69492,15.189C5.72092,15.04,5.669919999999999,14.889,5.55992,14.783C5.55992,14.783,2.603916,11.943,2.603916,11.943C2.0599161,11.422,1.864916,10.652000000000001,2.0949161,9.937000000000001C2.3269159999999998,9.214,2.940916,8.697,3.69792,8.589C3.69792,8.589,7.78592,8,7.78592,8C7.94392,7.978,8.079920000000001,7.881,8.14792,7.743C8.14792,7.743,9.974920000000001,4.091,9.974920000000001,4.091C10.31192,3.418,10.99192,3,11.74992,3C11.74992,3,11.74992,3,11.74992,3C12.5079,3,13.1879,3.418,13.5249,4.091C13.5249,4.091,15.3529,7.742,15.3529,7.742C15.4219,7.881,15.5569,7.978,15.7139,8C15.7139,8,19.8019,8.589,19.8019,8.589C20.5589,8.697,21.1729,9.214,21.4049,9.937000000000001C21.6349,10.652000000000001,21.4389,11.422,20.8949,11.943C20.8949,11.943,17.9389,14.783,17.9389,14.783C17.8289,14.889,17.7789,15.04,17.8049,15.188C17.8049,15.188,18.5019,19.199,18.5019,19.199C18.6299,19.938,18.3329,20.671,17.7259,21.114C17.1109,21.565,16.3099,21.626,15.6309,21.272C15.6309,21.272,11.97792,19.379,11.97792,19.379C11.83492,19.305,11.66392,19.305,11.52092,19.379C11.52092,19.379,7.86792,21.273,7.86792,21.273C7.57592,21.425,7.26092,21.5,6.94692,21.5Z" fill-rule="evenodd" fill="#130F26" fill-opacity="1"/></g></g></svg>