<?xml version="1.0" standalone="no"?><!DOCTYPE svg PUBLIC "-//W3C//DTD SVG 1.1//EN" "http://www.w3.org/Graphics/SVG/1.1/DTD/svg11.dtd"><svg t="1712119605144" class="icon" viewBox="0 0 1024 1024" version="1.1" xmlns="http://www.w3.org/2000/svg" p-id="1530" xmlns:xlink="http://www.w3.org/1999/xlink" width="200" height="200"><path d="M986.453333 225.28L785.066667 34.133333c-44.373333-44.373333-126.293333-44.373333-170.666667 0L37.546667 614.4c-23.893333 23.893333-34.133333 54.613333-34.133334 85.333333s13.653333 61.44 34.133334 85.333334l191.146666 204.8c23.893333 23.893333 54.613333 34.133333 85.333334 34.133333s61.44-13.653333 85.333333-34.133333L989.866667 395.946667c44.373333-44.373333 44.373333-122.88-3.413334-170.666667zM290.133333 785.066667h-34.133333c-10.24 0-17.066667-6.826667-17.066667-17.066667v-34.133333c0-10.24 6.826667-17.066667 17.066667-17.066667s17.066667 6.826667 17.066667 17.066667v17.066666h17.066666c10.24 0 17.066667 6.826667 17.066667 17.066667s-6.826667 17.066667-17.066667 17.066667z m0-204.8H273.066667v17.066666c0 10.24-6.826667 17.066667-17.066667 17.066667s-17.066667-6.826667-17.066667-17.066667v-34.133333c0-10.24 6.826667-17.066667 17.066667-17.066667h34.133333c10.24 0 17.066667 6.826667 17.066667 17.066667s-6.826667 17.066667-17.066667 17.066667z m68.266667 102.4c-10.24 0-17.066667-6.826667-17.066667-17.066667s6.826667-17.066667 17.066667-17.066667 17.066667 6.826667 17.066667 17.066667-6.826667 17.066667-17.066667 17.066667z m119.466667 85.333333c0 10.24-6.826667 17.066667-17.066667 17.066667h-34.133333c-10.24 0-17.066667-6.826667-17.066667-17.066667s6.826667-17.066667 17.066667-17.066667h17.066666v-17.066666c0-10.24 6.826667-17.066667 17.066667-17.066667s17.066667 6.826667 17.066667 17.066667v34.133333z m0-170.666667c0 10.24-6.826667 17.066667-17.066667 17.066667s-17.066667-6.826667-17.066667-17.066667V580.266667h-17.066666c-10.24 0-17.066667-6.826667-17.066667-17.066667s6.826667-17.066667 17.066667-17.066667h34.133333c10.24 0 17.066667 6.826667 17.066667 17.066667v34.133333z m-17.066667-187.733333c-10.24 0-17.066667-6.826667-17.066667-17.066667s6.826667-17.066667 17.066667-17.066666 17.066667 6.826667 17.066667 17.066666-6.826667 17.066667-17.066667 17.066667z m68.266667 68.266667c-10.24 0-17.066667-6.826667-17.066667-17.066667s6.826667-17.066667 17.066667-17.066667 17.066667 6.826667 17.066666 17.066667-6.826667 17.066667-17.066666 17.066667z m34.133333-170.666667c-10.24 0-17.066667-6.826667-17.066667-17.066667s6.826667-17.066667 17.066667-17.066666 17.066667 6.826667 17.066667 17.066666-6.826667 17.066667-17.066667 17.066667z m34.133333 238.933333c-10.24 0-17.066667-6.826667-17.066666-17.066666s6.826667-17.066667 17.066666-17.066667 17.066667 6.826667 17.066667 17.066667-6.826667 17.066667-17.066667 17.066666z m34.133334-170.666666c-10.24 0-17.066667-6.826667-17.066667-17.066667s6.826667-17.066667 17.066667-17.066667 17.066667 6.826667 17.066666 17.066667-6.826667 17.066667-17.066666 17.066667z m34.133333-170.666667c-10.24 0-17.066667-6.826667-17.066667-17.066667s6.826667-17.066667 17.066667-17.066666 17.066667 6.826667 17.066667 17.066666-6.826667 17.066667-17.066667 17.066667z m34.133333 238.933333c-10.24 0-17.066667-6.826667-17.066666-17.066666s6.826667-17.066667 17.066666-17.066667 17.066667 6.826667 17.066667 17.066667-6.826667 17.066667-17.066667 17.066666z m34.133334-170.666666c-10.24 0-17.066667-6.826667-17.066667-17.066667s6.826667-17.066667 17.066667-17.066667 17.066667 6.826667 17.066666 17.066667-6.826667 17.066667-17.066666 17.066667z m68.266666 68.266666c-10.24 0-17.066667-6.826667-17.066666-17.066666s6.826667-17.066667 17.066666-17.066667 17.066667 6.826667 17.066667 17.066667-6.826667 17.066667-17.066667 17.066666z" p-id="1531"></path></svg>