<svg xmlns="http://www.w3.org/2000/svg" xmlns:xlink="http://www.w3.org/1999/xlink" fill="none" version="1.1" width="24" height="24" viewBox="0 0 24 24"><defs><clipPath id="master_svg0_0_1452"><rect x="0" y="0" width="24" height="24" rx="0"/></clipPath></defs><g clip-path="url(#master_svg0_0_1452)"><g><path d="M11.999753731689452,0.75C15.962593731689454,0.75,18.070093731689454,1.90031,18.664493731689454,2.2870299999999997C18.793493731689452,2.33917,18.904093731689454,2.4287,18.981993731689453,2.54413C19.059793731689453,2.65956,19.101393731689452,2.79562,19.101293731689452,2.93484C19.100293731689455,3.02779,19.080893731689454,3.11962,19.044293731689454,3.20505C19.007693731689454,3.29049,18.954493731689453,3.36785,18.887893731689452,3.4327C18.821393731689454,3.49755,18.742593731689453,3.54861,18.656193731689452,3.58295C18.569893731689454,3.61729,18.477493731689453,3.63424,18.384593731689453,3.63281C18.229193731689453,3.6341,18.077693731689454,3.58473,17.952893731689453,3.49219C17.933193731689453,3.48234,16.10509373168945,2.15109,12.001163731689454,2.15109C7.897253731689453,2.15109,6.078973731689453,3.48703,6.058823731689453,3.50203C5.936663731689453,3.58708,5.7914137316894525,3.63271,5.642573731689453,3.63281C5.549703731689453,3.63436,5.4574437316894535,3.61757,5.371083731689453,3.58341C5.2847237316894535,3.54924,5.2059437316894535,3.49837,5.139283731689453,3.4337C5.072613731689453,3.36904,5.019363731689453,3.29185,4.9825737316894525,3.20657C4.945793731689453,3.12129,4.9261937316894535,3.02959,4.924913731689453,2.93672C4.925253731689454,2.83765,4.946713731689453,2.73979,4.987853731689453,2.64966C5.028993731689454,2.55954,5.0888737316894535,2.4792199999999998,5.1635037316894525,2.41406C5.167383731689453,2.41373,5.171023731689453,2.41208,5.173823731689453,2.40938C5.200313731689453,2.38468,5.229203731689453,2.3627000000000002,5.260073731689453,2.34375C5.727413731689453,2.0207800000000002,7.840063731689453,0.75,11.999753731689452,0.75ZM2.966006731689453,9.46875C2.839528731689453,9.4699,2.715001731689453,9.43755,2.605068731689453,9.375C2.524435731689453,9.32968,2.4536517316894533,9.26873,2.3968577316894533,9.19572C2.3400642316894533,9.12271,2.298401431689453,9.03911,2.274307531689453,8.9498C2.2502135250894533,8.8605,2.244172171689453,8.76728,2.256536961689453,8.67562C2.268901731689453,8.58395,2.299424431689453,8.49567,2.3463189316894533,8.415939999999999C3.250068731689453,6.9075,5.999753731689453,3.38672,11.999753731689452,3.38672C14.599893731689454,3.38672,16.880393731689452,4.06969,18.774593731689453,5.41594C20.333693731689454,6.52078,21.207393731689454,7.77141,21.623693731689453,8.373750000000001C21.676493731689455,8.449670000000001,21.713493731689454,8.53539,21.73269373168945,8.62586C21.751893731689453,8.71633,21.752693731689455,8.80971,21.735293731689453,8.90052C21.717793731689454,8.99133,21.68229373168945,9.07773,21.630993731689454,9.15463C21.579593731689453,9.23152,21.513393731689455,9.29737,21.436193731689453,9.34828C21.27839373168945,9.45257,21.086193731689452,9.49133,20.90039373168945,9.45633C20.714493731689455,9.42132,20.549593731689452,9.31532,20.440493731689454,9.16078C19.687293731689454,8.0775,17.390393731689453,4.78125,11.999753731689452,4.78125C6.738033731689453,4.78125,4.359133731689453,7.81453,3.584283731689453,9.11531C3.5220337316894534,9.22394,3.431893731689453,9.31397,3.3232037316894534,9.3761C3.2145107316894532,9.43823,3.091197731689453,9.47022,2.966006731689453,9.46875ZM15.022693731689452,23.25C14.962893731689453,23.2507,14.903193731689454,23.2439,14.845093731689452,23.2298C10.492723731689454,22.1517,8.867573731689454,17.8008,8.801473731689452,17.6198L8.791163731689453,17.58L8.789633731689452,17.5746C8.735983731689453,17.3868,7.897473731689453,14.451,9.222883731689453,12.7233C9.837413731689452,11.9264,10.772103731689453,11.5177,12.006323731689454,11.5177C13.153793731689452,11.5177,13.981593731689452,11.8744,14.550693731689453,12.6127C15.019393731689453,13.2155,15.206993731689453,13.9589,15.388393731689453,14.6752C15.769493731689453,16.1667,16.044593731689453,16.95,17.628493731689453,17.0306C18.32409373168945,17.0658,18.781193731689452,16.6589,19.040393731689452,16.3125C19.741193731689453,15.368,19.862993731689453,13.8281,19.33479373168945,12.4688C18.655993731689453,10.71422,16.247093731689453,7.40625,11.999753731689452,7.40625C10.186633731689454,7.40625,8.520693731689454,7.98891,7.184753731689453,9.08391C6.078973731689453,9.99094,5.202883731689453,11.2716,4.781003731689453,12.5878C3.998663731689453,15.0384,5.024753731689453,18.8906,5.034603731689453,18.9258C5.058553731689454,19.0154,5.064323731689453,19.109,5.051553731689453,19.2009C5.038783731689453,19.2928,5.0077437316894535,19.3812,4.960253731689454,19.461C4.912763731689453,19.5407,4.849793731689453,19.6101,4.775053731689454,19.6651C4.700313731689453,19.7201,4.615313731689453,19.7596,4.525073731689453,19.7812C4.342753731689453,19.8297,4.148703731689453,19.8049,3.984503731689453,19.712C3.8202937316894534,19.6191,3.699013731689453,19.4656,3.646633731689453,19.2844L3.646603731689453,19.2843C3.599343731689453,19.1071,2.5039867316894533,14.9995,3.407573731689453,12.1678C4.391943731689453,9.09891,7.429913731689453,6.00516,12.001163731689454,6.00516C14.113793731689453,6.00516,16.109793731689454,6.72328,17.77569373168945,8.07938C19.065693731689453,9.13406,20.119493731689452,10.55062,20.670693731689454,11.9667C21.371493731689455,13.7747,21.183493731689452,15.8039,20.19299373168945,17.1295C19.53299373168945,18.0136,18.593193731689453,18.4758,17.552093731689453,18.4256C14.839893731689454,18.2897,14.352393731689453,16.3964,13.997093731689453,15.0155C13.631493731689453,13.5989,13.397593731689453,12.9159,12.001163731689454,12.9159C11.234283731689453,12.9159,10.695693731689452,13.1269,10.360533731689452,13.5637C9.903503731689453,14.1614,9.867883731689453,15.0956,9.918503731689453,15.7734C9.951743731689454,16.2457,10.031823731689453,16.7134,10.157573731689453,17.1698C10.269133731689454,17.4511,11.721783731689452,21.0136,15.200893731689453,21.8756C15.290793731689453,21.8969,15.375593731689452,21.9359,15.450293731689452,21.9902C15.524993731689452,22.0446,15.588193731689453,22.1133,15.636193731689453,22.1922C15.684193731689453,22.2712,15.715993731689453,22.359,15.729793731689453,22.4503C15.743493731689453,22.5417,15.738993731689453,22.6349,15.716493731689454,22.7245C15.673993731689453,22.8758,15.583193731689454,23.0091,15.457993731689454,23.1039C15.332693731689453,23.1988,15.179893731689454,23.2501,15.022693731689452,23.25ZM9.152143731689453,22.8713C9.242013731689454,22.9092,9.338613731689453,22.9286,9.436163731689454,22.9284C9.614553731689453,22.9275,9.786333731689453,22.8607,9.918503731689453,22.7409C9.987143731689454,22.6791,10.042653731689454,22.6041,10.081723731689454,22.5204C10.120803731689453,22.4367,10.142653731689453,22.346,10.145983731689453,22.2537C10.149303731689454,22.1614,10.134033731689453,22.0694,10.101073731689453,21.9831C10.068113731689454,21.8968,10.018143731689452,21.818,9.954133731689453,21.7514C8.420383731689453,20.1445,7.551783731689453,18.3464,7.226943731689453,16.086100000000002C7.0652237316894535,14.7605,7.293033731689453,12.7566,8.471473731689454,11.4558C9.288973731689453,10.55344,10.477253731689453,10.09641,11.996003731689454,10.09641C13.754293731689453,10.09641,15.083693731689452,10.8802,15.957393731689454,12.4219C16.387293731689454,13.1961,16.671093731689453,14.0429,16.794593731689453,14.9198C16.817793731689456,15.1062,16.913293731689453,15.276,17.060493731689455,15.3925C17.207793731689453,15.5091,17.394893731689454,15.5631,17.581593731689452,15.5428C17.674193731689453,15.5345,17.764093731689453,15.5079,17.846393731689453,15.4647C17.928693731689453,15.4216,18.001593731689454,15.3626,18.060993731689454,15.2912C18.120493731689454,15.2198,18.165193731689453,15.1373,18.192793731689456,15.0486C18.220293731689452,14.9599,18.23009373168945,14.8666,18.221493731689453,14.7741C18.217293731689452,14.7141,18.055093731689453,13.2525,17.237093731689455,11.7858C16.109793731689454,9.76687,14.301793731689454,8.697189999999999,12.001163731689454,8.697189999999999C10.055853731689453,8.697189999999999,8.506633731689453,9.315,7.404603731689453,10.53047C5.911633731689453,12.1777,5.606943731689453,14.5734,5.815073731689453,16.2656L5.815073731689453,16.2792C6.185853731689454,18.8353,7.171163731689453,20.8795,8.913033731689453,22.7077C8.980943731689454,22.7777,9.062263731689452,22.8333,9.152143731689453,22.8713ZM17.460693731689453,20.9147C15.937293731689453,20.9147,14.642093731689453,20.4928,13.605693731689453,19.6542C11.523503731689454,17.9766,11.290063731689454,15.2442,11.279753731689453,15.1289C11.265083731689453,14.9396,11.326203731689453,14.7523,11.449673731689453,14.6081C11.573143731689454,14.4639,11.748833731689453,14.3746,11.938113731689453,14.3599C12.127393731689454,14.3453,12.314793731689454,14.4064,12.458993731689453,14.5298C12.603193731689453,14.6533,12.692393731689453,14.829,12.707093731689453,15.0183C12.712293731689453,15.0586,12.920393731689453,17.2936,14.525393731689453,18.5808C15.475093731689453,19.3392,16.744393731689453,19.6402,18.308693731689452,19.4644C18.495593731689453,19.4417,18.68389373168945,19.494,18.832493731689453,19.6097C18.980993731689452,19.7255,19.077693731689454,19.8954,19.101293731689452,20.0822C19.111593731689453,20.1745,19.103293731689455,20.2679,19.07709373168945,20.357C19.050793731689453,20.446,19.00709373168945,20.529,18.948493731689453,20.601C18.889793731689455,20.673,18.817393731689453,20.7326,18.735493731689452,20.7763C18.653593731689455,20.82,18.563793731689454,20.847,18.471293731689453,20.8556C18.135893731689453,20.8948,17.79839373168945,20.9145,17.460693731689453,20.9147Z" fill-rule="evenodd" fill="#373737" fill-opacity="1"/></g></g></svg>