<svg xmlns="http://www.w3.org/2000/svg" xmlns:xlink="http://www.w3.org/1999/xlink" fill="none" version="1.1" width="24" height="24" viewBox="0 0 24 24"><g><g><g><g style="opacity:0.4000000059604645;"><path d="M21.97,6.41C21.97,6.41,21.97,12.91,21.97,12.91C21.97,12.91,2,12.91,2,12.91C2,12.91,2,6.41,2,6.41C2,3.98,3.98,2,6.41,2C6.41,2,17.560000000000002,2,17.560000000000002,2C19.99,2,21.97,3.98,21.97,6.41C21.97,6.41,21.97,6.41,21.97,6.41Z" fill="#292D32" fill-opacity="1"/></g><g><path d="M2,12.920000076293945C2,12.920000076293945,2,13.120000076293945,2,13.120000076293945C2,15.560000076293946,3.98,17.530000076293945,6.41,17.530000076293945C6.41,17.530000076293945,10.25,17.530000076293945,10.25,17.530000076293945C10.8,17.530000076293945,11.25,17.980000076293944,11.25,18.530000076293945C11.25,18.530000076293945,11.25,19.500000076293944,11.25,19.500000076293944C11.25,20.050000076293944,10.8,20.500000076293944,10.25,20.500000076293944C10.25,20.500000076293944,7.83,20.500000076293944,7.83,20.500000076293944C7.42,20.500000076293944,7.08,20.840000076293947,7.08,21.250000076293944C7.08,21.660000076293947,7.41,22.000000076293944,7.83,22.000000076293944C7.83,22.000000076293944,16.18,22.000000076293944,16.18,22.000000076293944C16.59,22.000000076293944,16.93,21.660000076293947,16.93,21.250000076293944C16.93,20.840000076293947,16.59,20.500000076293944,16.18,20.500000076293944C16.18,20.500000076293944,13.76,20.500000076293944,13.76,20.500000076293944C13.21,20.500000076293944,12.76,20.050000076293944,12.76,19.500000076293944C12.76,19.500000076293944,12.76,18.530000076293945,12.76,18.530000076293945C12.76,17.980000076293944,13.21,17.530000076293945,13.76,17.530000076293945C13.76,17.530000076293945,17.57,17.530000076293945,17.57,17.530000076293945C20.01,17.530000076293945,21.98,15.550000076293944,21.98,13.120000076293945C21.98,13.120000076293945,21.98,12.920000076293945,21.98,12.920000076293945C21.98,12.920000076293945,2,12.920000076293945,2,12.920000076293945C2,12.920000076293945,2,12.920000076293945,2,12.920000076293945C2,12.920000076293945,2,12.920000076293945,2,12.920000076293945Z" fill="#292D32" fill-opacity="1"/></g><g style="opacity:0;"></g></g></g></g></svg>