<svg xmlns="http://www.w3.org/2000/svg" xmlns:xlink="http://www.w3.org/1999/xlink" fill="none" version="1.1" width="24" height="24" viewBox="0 0 24 24"><g><g><g><g style="opacity:0.10000000149011612;"></g></g></g><g><path d="M8,4C8,4,16,4,16,4C16,4,16,2,16,2C16,2,8,2,8,2C8,2,8,4,8,4C8,4,8,4,8,4ZM18,6C18,6,18,18,18,18C18,18,20,18,20,18C20,18,20,6,20,6C20,6,18,6,18,6C18,6,18,6,18,6ZM16,20C16,20,8,20,8,20C8,20,8,22,8,22C8,22,16,22,16,22C16,22,16,20,16,20C16,20,16,20,16,20ZM6,18C6,18,6,6,6,6C6,6,4,6,4,6C4,6,4,18,4,18C4,18,6,18,6,18C6,18,6,18,6,18ZM8,20C6.89543,20,6,19.1046,6,18C6,18,4,18,4,18C4,20.2091,5.79086,22,8,22C8,22,8,20,8,20C8,20,8,20,8,20ZM18,18C18,19.1046,17.104599999999998,20,16,20C16,20,16,22,16,22C18.2091,22,20,20.2091,20,18C20,18,18,18,18,18C18,18,18,18,18,18ZM16,4C17.104599999999998,4,18,4.89543,18,6C18,6,20,6,20,6C20,3.79086,18.2091,2,16,2C16,2,16,4,16,4C16,4,16,4,16,4ZM8,2C5.79086,2,4,3.79086,4,6C4,6,6,6,6,6C6,4.89543,6.89543,4,8,4C8,4,8,2,8,2C8,2,8,2,8,2ZM13.88889,4C13.88889,4,10.11111,4,10.11111,4C10.11111,4,10.11111,6,10.11111,6C10.11111,6,13.88889,6,13.88889,6C13.88889,6,13.88889,4,13.88889,4C13.88889,4,13.88889,4,13.88889,4ZM16,2C16,2,15.8889,2,15.8889,2C15.8889,2,15.8889,4,15.8889,4C15.8889,4,16,4,16,4C16,4,16,2,16,2C16,2,16,2,16,2ZM8.11111,2C8.11111,2,8,2,8,2C8,2,8,4,8,4C8,4,8.11111,4,8.11111,4C8.11111,4,8.11111,2,8.11111,2C8.11111,2,8.11111,2,8.11111,2ZM15.8889,2C14.4161,2,13.22222,3.19391,13.22222,4.66667C13.22222,4.66667,15.2222,4.66667,15.2222,4.66667C15.2222,4.29848,15.5207,4,15.8889,4C15.8889,4,15.8889,2,15.8889,2C15.8889,2,15.8889,2,15.8889,2ZM10.11111,4C10.4793,4,10.77778,4.29847,10.77778,4.66667C10.77778,4.66667,8.77778,4.66667,8.77778,4.66667C8.77778,5.40305,9.37473,6,10.11111,6C10.11111,6,10.11111,4,10.11111,4C10.11111,4,10.11111,4,10.11111,4ZM10.77778,4.66667C10.77778,3.19391,9.583870000000001,2,8.11111,2C8.11111,2,8.11111,4,8.11111,4C8.4793,4,8.77778,4.29848,8.77778,4.66667C8.77778,4.66667,10.77778,4.66667,10.77778,4.66667C10.77778,4.66667,10.77778,4.66667,10.77778,4.66667ZM13.88889,6C14.6253,6,15.2222,5.40305,15.2222,4.66667C15.2222,4.66667,13.22222,4.66667,13.22222,4.66667C13.22222,4.29848,13.5207,4,13.88889,4C13.88889,4,13.88889,6,13.88889,6C13.88889,6,13.88889,6,13.88889,6Z" fill="#000000" fill-opacity="1"/></g></g></svg>