<svg xmlns="http://www.w3.org/2000/svg" xmlns:xlink="http://www.w3.org/1999/xlink" fill="none" version="1.1" width="24" height="24" viewBox="0 0 24 24"><defs><clipPath id="master_svg0_0_2844"><rect x="0" y="0" width="24" height="24" rx="0"/></clipPath></defs><g clip-path="url(#master_svg0_0_2844)"><g><path d="M23.1204,20.1204C23.6828,19.5579,23.9991,18.7954,24,18L24,6C23.9991,5.20462,23.6828,4.44206,23.1204,3.879639C22.5579,3.317218,21.7954,3.000868526,21,3L3,3C2.20462,3.000868526,1.44206,3.317218,0.879639,3.879639C0.317218,4.44206,0.000868526,5.20462,0,6L0,18C0.000868526,18.7954,0.317218,19.5579,0.879639,20.1204C1.44206,20.6828,2.20462,20.9991,3,21L21,21C21.7954,20.9991,22.5579,20.6828,23.1204,20.1204ZM1.93934,19.0607C1.65804,18.779400000000003,1.5,18.3978,1.5,18L1.5,6C1.5,5.602180000000001,1.65804,5.2206399999999995,1.93934,4.93934C2.22064,4.65804,2.60218,4.5,3,4.5L21,4.5C21.3978,4.5,21.7794,4.65804,22.0607,4.93934C22.342,5.2206399999999995,22.5,5.602180000000001,22.5,6L22.5,18C22.5,18.3978,22.342,18.779400000000003,22.0607,19.0607C21.7794,19.342,21.3978,19.5,21,19.5L3,19.5C2.60218,19.5,2.22064,19.342,1.93934,19.0607ZM21.5303,18.5303C21.671,18.389699999999998,21.75,18.198900000000002,21.75,18L21.75,6C21.75,5.80109,21.671,5.61032,21.5303,5.46967C21.3897,5.32902,21.1989,5.25,21,5.25L3,5.25C2.80109,5.25,2.61032,5.32902,2.46967,5.46967C2.32902,5.61032,2.25,5.80109,2.25,6L2.25,18C2.25,18.198900000000002,2.32902,18.389699999999998,2.46967,18.5303C2.61032,18.671,2.80109,18.75,3,18.75L21,18.75C21.1989,18.75,21.3897,18.671,21.5303,18.5303Z" fill-rule="evenodd" fill="#373737" fill-opacity="1"/></g></g></svg>