<svg xmlns="http://www.w3.org/2000/svg" xmlns:xlink="http://www.w3.org/1999/xlink" fill="none" version="1.1" width="24" height="24" viewBox="0 0 24 24"><defs><clipPath id="master_svg0_0_3033"><rect x="0" y="0" width="24" height="24" rx="0"/></clipPath></defs><g clip-path="url(#master_svg0_0_3033)"><g><path d="M3.00656,18L20.9934,18C21.5917,17.999299999999998,22.1652,17.7613,22.5882,17.3382C23.0113,16.9152,23.2493,16.3417,23.25,15.7434L23.25,6.00656C23.2493,5.40831,23.0113,4.83478,22.5882,4.411754C22.1652,3.988728,21.5917,3.750744246,20.9934,3.75L3.00656,3.75C2.40831,3.750744246,1.83478,3.988728,1.411754,4.411754C0.988728,4.83478,0.750744246,5.40831,0.75,6.00656L0.75,15.7434C0.750744246,16.3417,0.988728,16.9152,1.411754,17.3382C1.83478,17.7613,2.40831,17.999299999999998,3.00656,18ZM6,18.75C5.58579,18.75,5.25,19.0858,5.25,19.5C5.25,19.9142,5.58579,20.25,6,20.25L18,20.25C18.4142,20.25,18.75,19.9142,18.75,19.5C18.75,19.0858,18.4142,18.75,18,18.75L6,18.75Z" fill-rule="evenodd" fill="#373737" fill-opacity="1"/></g></g></svg>