<svg xmlns="http://www.w3.org/2000/svg" xmlns:xlink="http://www.w3.org/1999/xlink" fill="none" version="1.1" width="24" height="24" viewBox="0 0 24 24"><g><g><g transform="matrix(0,1,-1,0,25.5,-16.5)"><g><path d="M29.32284,5.207159C29.26786,4.807804,28.92046,4.5,28.5001,4.5C28.04153,4.5,27.66978,4.866312,27.66978,5.318182L27.66978,19.6999L22.41866,14.5047L22.3257,14.42528C22.00114,14.18696,21.539803,14.21243,21.244412,14.5023C20.9194812,14.8212,20.9183927,15.3392,21.241981,15.6594L27.90039,22.2477C27.94021,22.2886,27.9843,22.3255,28.031959999999998,22.3577C28.35576,22.5762,28.80184,22.5435,29.08894,22.2593L35.7581,15.6593L35.838300000000004,15.5674C36.0787,15.2466,36.051,14.7921,35.7555,14.5022C35.4306,14.18342,34.9049,14.18454,34.5813,14.5047L29.33042,19.7012L29.33042,5.318182L29.32284,5.207159Z" fill-rule="evenodd" fill="#130F26" fill-opacity="1"/></g></g></g></g></svg>