<svg xmlns="http://www.w3.org/2000/svg" xmlns:xlink="http://www.w3.org/1999/xlink" fill="none" version="1.1" width="24" height="24" viewBox="0 0 24 24"><g><g><g><path d="M2,12.0058C2,6.48625,6.48842,2,12,2C17.5116,2,22,6.48625,22,12.0058C22,17.5137,17.5116,22,12,22C6.48842,22,2,17.5137,2,12.0058C2,12.0058,2,12.0058,2,12.0058ZM15.668,13.0178C15.7741,12.9117,15.9093,12.7477,15.9382,12.7091C16.0927,12.5065,16.1699,12.2557,16.1699,12.0058C16.1699,11.72504,16.083,11.46454,15.9189,11.25229C15.9055,11.23885,15.8791,11.21019,15.8448,11.17284C15.7806,11.10296,15.6885,11.00264,15.6004,10.91462C14.8089,10.06561,12.7432,8.67631,11.66216,8.251809999999999C11.49807,8.18524,11.08301,8.03956,10.861,8.029910000000001C10.64865,8.029910000000001,10.44595,8.07815,10.2529,8.17463C10.01158,8.3097,9.818529999999999,8.52195,9.71236,8.77279C9.64479,8.946449999999999,9.53861,9.46744,9.53861,9.47709C9.43243,10.04631,9.37452,10.9725,9.37452,11.99518C9.37452,12.9706,9.43243,13.8572,9.51931,14.4361C9.52169,14.4385,9.530000000000001,14.4799,9.5429,14.5442C9.58211,14.7397,9.6638,15.1471,9.750969999999999,15.314C9.96332,15.7192,10.37838,15.9701,10.82239,15.9701C10.82239,15.9701,10.861,15.9701,10.861,15.9701C11.15058,15.9604,11.75869,15.7096,11.75869,15.7C12.7819,15.2754,14.7992,13.9537,15.61,13.0757C15.61,13.0757,15.668,13.0178,15.668,13.0178C15.668,13.0178,15.668,13.0178,15.668,13.0178Z" fill-rule="evenodd" fill="#130F26" fill-opacity="1"/></g></g></g></svg>