<svg xmlns="http://www.w3.org/2000/svg" xmlns:xlink="http://www.w3.org/1999/xlink" fill="none" version="1.1" width="24" height="24" viewBox="0 0 24 24"><g><g><g><path d="M12.25,3.5C7.425,3.5,3.5,7.425,3.5,12.25C3.5,17.075,7.425,21,12.25,21C17.075,21,21,17.075,21,12.25C21,7.425,17.075,3.5,12.25,3.5ZM12.25,22.5C6.598,22.5,2,17.902,2,12.25C2,6.598,6.598,2,12.25,2C17.902,2,22.5,6.598,22.5,12.25C22.5,17.902,17.902,22.5,12.25,22.5Z" fill-rule="evenodd" fill="#130F26" fill-opacity="1"/></g><g><path d="M11.13379829788208,10.086401644744873C10.95679829788208,11.087401644744872,10.95379829788208,13.478401644744874,11.13079829788208,14.428401644744874C12.00879829788208,14.118401644744873,13.91079829788208,12.868401644744873,14.42279829788208,12.249401644744873C13.91279829788208,11.648401644744872,12.03479829788208,10.424401644744872,11.13379829788208,10.086401644744873C11.13379829788208,10.086401644744873,11.13379829788208,10.086401644744873,11.13379829788208,10.086401644744873C11.13379829788208,10.086401644744873,11.13379829788208,10.086401644744873,11.13379829788208,10.086401644744873ZM10.82779829788208,16.001401644744874C10.55779829788208,16.001401644744874,10.30180029788208,15.924401644744872,10.09280029788208,15.716401644744874C9.93180029788208,15.557401644744873,9.50179997788208,15.132401644744874,9.49979997303208,12.333401644744873C9.49879997288208,9.361399644744873,9.94580029788208,8.919399644744873,10.09280029788208,8.772399644744873C10.61579829788208,8.254399644744874,11.46779829788208,8.609399644744872,11.83079829788208,8.761399644744873C12.35079829788208,8.978399644744872,15.99979829788208,10.847401644744874,15.99979829788208,12.245401644744874C15.99979829788208,13.555401644744872,12.715798297882081,15.387401644744873,11.876798297882079,15.737401644744873C11.54979829788208,15.873401644744874,11.17679829788208,16.001401644744874,10.82779829788208,16.001401644744874C10.82779829788208,16.001401644744874,10.82779829788208,16.001401644744874,10.82779829788208,16.001401644744874C10.82779829788208,16.001401644744874,10.82779829788208,16.001401644744874,10.82779829788208,16.001401644744874Z" fill-rule="evenodd" fill="#130F26" fill-opacity="1"/></g></g></g></svg>